<svg xmlns="http://www.w3.org/2000/svg" viewBox="0 0 1200 400" width="1200" height="400" role="img" aria-label="Hero">
	<defs>
		<linearGradient id="bg" x1="0" x2="1" y1="0" y2="1">
			<stop offset="0%" stop-color="#eff6ff"/>
			<stop offset="100%" stop-color="#ecfeff"/>
		</linearGradient>
		<linearGradient id="accent" x1="0" x2="1" y1="0" y2="1">
			<stop offset="0%" stop-color="#06b6d4"/>
			<stop offset="100%" stop-color="#3b82f6"/>
		</linearGradient>
	</defs>
	<rect width="1200" height="400" rx="16" fill="url(#bg)"/>
	<g transform="translate(100,60)">
		<rect x="0" y="0" width="360" height="220" rx="12" fill="url(#accent)" opacity="0.15"/>
		<rect x="40" y="32" width="320" height="24" rx="12" fill="#0ea5e9" opacity="0.3"/>
		<rect x="40" y="72" width="260" height="18" rx="9" fill="#0ea5e9" opacity="0.3"/>
		<circle cx="80" cy="160" r="36" fill="#22d3ee" opacity="0.4"/>
		<circle cx="140" cy="160" r="36" fill="#60a5fa" opacity="0.4"/>
		<circle cx="200" cy="160" r="36" fill="#a5b4fc" opacity="0.4"/>
	</g>
	<g transform="translate(560,60)">
		<rect x="0" y="0" width="520" height="260" rx="16" fill="url(#accent)" opacity="0.12"/>
		<rect x="28" y="28" width="464" height="24" rx="12" fill="#0ea5e9" opacity="0.3"/>
		<rect x="28" y="64" width="420" height="18" rx="9" fill="#0ea5e9" opacity="0.3"/>
		<rect x="28" y="110" width="464" height="112" rx="12" fill="#fff"/>
	</g>
</svg>


